<svg width="835" height="759" viewBox="0 0 835 759" fill="none" xmlns="http://www.w3.org/2000/svg">
<g clip-path="url(#clip0_933:11007)">
<path d="M319.688 28.9346H249.383V123.176H319.688V28.9346Z" fill="#F4F7FD"/>
<path d="M394.893 28.9346H324.588V123.176H394.893V28.9346Z" fill="#F4F7FD"/>
<path d="M319.688 129.557H249.383V223.799H319.688V129.557Z" fill="#F4F7FD"/>
<path d="M394.893 129.557H324.588V223.799H394.893V129.557Z" fill="#F4F7FD"/>
<path d="M474.541 28.9346H404.236V123.176H474.541V28.9346Z" fill="#F4F7FD"/>
<path d="M549.974 28.9346H479.669V123.176H549.974V28.9346Z" fill="#F4F7FD"/>
<path d="M474.541 129.557H404.236V223.799H474.541V129.557Z" fill="#F4F7FD"/>
<path d="M549.974 129.557H479.669V223.799H549.974V129.557Z" fill="#F4F7FD"/>
<path d="M474.541 233.722H404.236V327.964H474.541V233.722Z" fill="#F4F7FD"/>
<path d="M549.974 233.722H479.669V327.964H549.974V233.722Z" fill="#F4F7FD"/>
<path d="M474.541 334.345H404.236V428.586H474.541V334.345Z" fill="#F4F7FD"/>
<path d="M549.974 334.345H479.669V428.586H549.974V334.345Z" fill="#F4F7FD"/>
<path d="M319.688 233.722H249.383V327.964H319.688V233.722Z" fill="#F4F7FD"/>
<path d="M394.893 233.722H324.588V327.964H394.893V233.722Z" fill="#F4F7FD"/>
<path d="M319.688 334.345H249.383V428.586H319.688V334.345Z" fill="#F4F7FD"/>
<path d="M394.893 334.345H324.588V428.586H394.893V334.345Z" fill="#F4F7FD"/>
<path d="M628.301 196.004H623.743V724.529H628.301V196.004Z" fill="#ABC5FF"/>
<path d="M622.604 715.298H629.554C634.682 715.298 638.784 719.401 638.784 724.529H613.488C613.488 719.401 617.476 715.298 622.604 715.298Z" fill="#ABC5FF"/>
<path d="M738.829 196.574L728.232 449.555H515.722L526.319 196.574H738.829Z" fill="#F9FBFF" stroke="#D9E5FF" stroke-width="3"/>
<path d="M524.837 199.423H741.336C744.07 199.423 746.235 197.257 746.235 194.522C746.235 191.787 744.07 189.622 741.336 189.622H524.837C522.103 189.622 519.938 191.787 519.938 194.522C519.938 197.257 522.103 199.423 524.837 199.423Z" fill="#ABC5FF"/>
<path d="M621.35 318.619C621.35 318.619 623.857 341.069 620.666 353.376L590.584 352.122C590.584 352.122 597.079 330.015 593.091 320.101L621.35 318.619Z" fill="#EBEBEB"/>
<path d="M590.584 313.377C590.584 313.377 588.533 340.271 586.824 345.399L614.285 348.248L618.387 344.373C618.387 344.373 621.122 324.659 620.666 318.278L590.584 313.377Z" fill="#8EA8FC"/>
<path d="M615.197 327.622C615.197 327.736 614.058 327.508 612.121 327.28C610.069 326.938 607.563 326.596 604.714 326.255C601.865 325.913 599.359 325.571 597.308 325.343C595.37 325.115 594.231 325.001 594.231 324.887C594.231 324.773 595.37 324.887 597.308 325.001C599.245 325.115 601.865 325.343 604.714 325.799C607.563 326.141 610.183 326.596 612.121 326.938C614.058 327.28 615.197 327.622 615.197 327.622Z" fill="white"/>
<path d="M613.943 333.32C613.943 333.434 612.804 333.32 610.981 333.206C609.158 333.092 606.651 332.864 603.916 332.522C601.182 332.18 598.675 331.724 596.852 331.496C595.028 331.154 594.003 330.926 594.003 330.813C594.003 330.699 595.142 330.813 596.966 331.154C598.903 331.382 601.409 331.724 604.03 332.066C606.765 332.408 609.158 332.636 611.095 332.978C612.918 333.092 613.943 333.206 613.943 333.32Z" fill="white"/>
<path d="M612.234 338.448C612.234 338.562 608.132 338.106 603.005 337.536C597.877 336.852 593.889 336.169 593.889 336.055C593.889 335.941 597.991 336.396 603.119 337.08C608.246 337.65 612.348 338.334 612.234 338.448Z" fill="white"/>
<path d="M646.76 232.583C646.76 232.583 643.684 254.918 637.644 266.086L608.702 257.539C608.702 257.539 620.325 237.597 618.843 227.113L646.76 232.583Z" fill="#EBEBEB"/>
<path d="M646.76 231.785C646.76 231.785 640.721 255.26 637.645 262.097L608.36 253.323C608.36 253.323 616.792 230.874 617.248 224.378L646.76 231.785Z" fill="#8EA8FC"/>
<path d="M619.413 235.546C619.413 235.432 623.857 236.685 629.212 238.395C634.568 240.104 638.898 241.586 638.898 241.7C638.898 241.814 634.454 240.56 628.984 238.851C623.743 237.141 619.299 235.66 619.413 235.546Z" fill="white"/>
<path d="M618.159 240.446C618.159 240.332 622.603 241.586 627.959 243.295C633.314 245.004 637.758 246.486 637.644 246.6C637.644 246.714 633.2 245.46 627.731 243.751C622.375 242.041 618.045 240.56 618.159 240.446Z" fill="white"/>
<path d="M621.92 246.6C621.92 246.486 624.541 247.169 627.617 248.081C630.694 248.993 633.201 249.905 633.087 250.132C633.087 250.246 630.466 249.563 627.389 248.651C624.313 247.625 621.92 246.714 621.92 246.6Z" fill="white"/>
<path d="M668.638 340.271C668.638 340.271 666.245 362.72 669.321 375.027L699.403 373.774C699.403 373.774 692.908 351.667 696.896 341.866L668.638 340.271Z" fill="#EBEBEB"/>
<path d="M668.752 339.587C668.752 339.587 668.98 363.86 670.233 371.267L700.771 369.785C700.771 369.785 698.036 345.969 699.062 339.587H668.752Z" fill="#407BFF"/>
<path d="M694.503 349.729C694.503 349.843 689.946 350.299 684.248 350.641C678.551 350.983 673.993 351.097 673.993 350.983C673.993 350.869 678.551 350.413 684.248 350.071C689.832 349.729 694.39 349.615 694.503 349.729Z" fill="white"/>
<path d="M694.503 354.857C694.503 354.971 689.946 355.427 684.248 355.769C678.551 356.111 673.993 356.225 673.993 356.111C673.993 355.997 678.551 355.541 684.248 355.199C689.832 354.857 694.503 354.743 694.503 354.857Z" fill="white"/>
<path d="M689.262 359.985C689.262 360.099 686.641 360.441 683.451 360.555C680.26 360.783 677.64 360.783 677.64 360.669C677.64 360.555 680.26 360.213 683.451 360.099C686.641 359.871 689.262 359.757 689.262 359.985Z" fill="white"/>
<path d="M615.175 343.786L614.605 347.889L618.708 344.014L615.175 343.786Z" fill="#263238"/>
<path d="M804.212 238.605L804.782 239.517L805.466 240.657L806.719 243.164C807.517 244.873 808.428 246.582 809.112 248.406C810.593 251.938 812.075 255.585 813.328 259.345C815.835 266.866 817.658 274.615 819.025 282.364L819.253 283.846C819.253 284.074 819.253 284.188 819.253 284.415V284.871C819.367 285.555 819.367 286.125 819.253 286.809C819.139 288.29 818.911 289.771 818.57 291.253C817.544 294.671 816.177 297.976 814.354 301.167C810.366 308.004 805.694 314.5 800.452 320.425L806.263 327.149C813.67 322.021 820.165 315.753 825.748 308.688C828.711 304.813 831.218 300.597 833.041 296.153C834.066 293.646 834.75 291.025 835.092 288.404C835.32 286.922 835.32 285.441 835.32 284.074V282.934C835.32 282.592 835.32 282.25 835.32 281.908L835.206 280.199C834.408 271.311 832.813 262.536 830.192 253.989C828.939 249.659 827.457 245.443 825.634 241.226C824.723 239.175 823.697 237.01 822.672 234.959C822.102 233.933 821.646 232.908 820.963 231.882L820.051 230.287C819.709 229.717 819.481 229.261 818.912 228.463L804.212 238.605Z" fill="#FFC3BD"/>
<path d="M799.541 327.263L807.175 343.216L813.215 329.77C813.215 329.77 807.631 319.286 800.453 320.425L799.541 327.263Z" fill="#FFC3BD"/>
<path d="M819.14 343.218L825.179 333.303L813.101 329.656L807.062 343.218H819.14Z" fill="#FFC3BD"/>
<path d="M778.461 713.23C780.056 713.23 781.537 713.002 783.133 712.546C783.361 712.546 783.474 712.318 783.474 712.09C783.474 711.976 783.361 711.862 783.361 711.862C782.791 711.521 777.435 707.988 775.384 708.899C774.928 709.127 774.587 709.583 774.587 710.039C774.473 710.837 774.701 711.634 775.27 712.09C776.068 712.888 777.207 713.344 778.461 713.23ZM781.879 711.976C778.803 712.66 776.524 712.546 775.612 711.634C775.27 711.293 775.042 710.723 775.156 710.153C775.156 709.925 775.27 709.697 775.498 709.583C776.638 709.241 779.714 710.723 781.879 711.976Z" fill="#407BFF"/>
<path d="M783.019 712.547H783.247C783.36 712.433 783.474 712.319 783.474 712.205C783.474 711.977 783.474 706.962 781.537 705.253C781.082 704.797 780.398 704.569 779.828 704.683C779.144 704.683 778.575 705.139 778.461 705.823C778.119 707.76 781.196 711.521 783.019 712.547ZM779.942 705.481C780.284 705.481 780.626 705.595 780.854 705.823C781.993 707.418 782.563 709.356 782.449 711.293C780.74 709.925 778.803 707.076 779.031 705.937C779.031 705.709 779.144 705.481 779.714 705.481H779.942Z" fill="#407BFF"/>
<path d="M669.3 705.481C669.414 705.481 669.642 705.367 669.642 705.253C669.756 705.139 669.756 704.911 669.642 704.797C669.072 704.114 664.172 698.415 661.666 698.415H661.552C661.096 698.415 660.64 698.757 660.412 699.213C660.07 699.897 660.07 700.581 660.412 701.264C661.552 703.544 666.451 704.797 669.3 705.481ZM661.666 699.213C663.033 699.213 665.996 702.062 668.161 704.342C664.286 703.43 661.78 702.29 661.096 700.923C660.868 700.467 660.868 700.011 661.096 699.555C661.21 699.327 661.324 699.213 661.666 699.213Z" fill="#407BFF"/>
<path d="M669.3 705.482C669.414 705.482 669.528 705.368 669.642 705.254C669.642 705.026 671.123 700.581 669.756 697.96C669.414 697.162 668.73 696.706 667.933 696.364C666.793 696.022 666.223 696.364 665.996 696.82C664.97 698.53 667.363 703.544 668.844 705.14C668.958 705.367 669.186 705.482 669.3 705.482ZM667.135 697.162C667.249 697.162 667.477 697.162 667.591 697.162C668.161 697.276 668.73 697.732 668.958 698.302C669.528 700.239 669.528 702.29 668.958 704.114C667.477 702.063 665.995 698.302 666.679 697.276C666.907 697.276 666.907 697.162 667.135 697.162Z" fill="#407BFF"/>
<path d="M781.765 167.269C779.714 177.753 775.156 200.316 782.449 207.268C782.449 207.268 779.6 217.751 760.229 217.751C738.921 217.751 750.088 207.268 750.088 207.268C761.711 204.533 761.369 195.872 759.432 187.781L781.765 167.269Z" fill="#FFC3BD"/>
<path d="M746.214 142.769C746.328 142.769 746.442 142.769 746.556 142.769C747.011 142.541 747.125 142.085 746.898 141.63C745.758 139.236 743.479 137.527 740.858 137.071C740.403 137.071 739.947 137.413 739.947 137.755C739.947 138.211 740.175 138.667 740.63 138.667C742.682 139.008 744.505 140.49 745.416 142.427C745.644 142.541 745.986 142.769 746.214 142.769Z" fill="#263238"/>
<path d="M739.946 151.885C738.237 154.962 736.186 157.811 733.793 160.205C735.161 161.458 736.87 162.028 738.693 161.8L739.946 151.885Z" fill="#ED847E"/>
<path d="M741.542 149.492C741.428 150.86 740.517 151.886 739.605 151.886C738.693 151.772 738.124 150.518 738.238 149.151C738.352 147.783 739.263 146.757 740.175 146.757C741.086 146.871 741.656 148.125 741.542 149.492Z" fill="#263238"/>
<path d="M740.517 146.871L737.326 145.504C737.326 145.504 738.694 148.353 740.517 146.871Z" fill="#263238"/>
<path d="M687.873 712.09L670.781 708.102L678.757 668.331L695.849 672.32L687.873 712.09Z" fill="#FFC3BD"/>
<path d="M803.415 712.204H785.867L787.234 671.636H804.782L803.415 712.204Z" fill="#FFC3BD"/>
<path d="M784.386 710.153H804.098C804.782 710.153 805.352 710.723 805.466 711.407L807.745 727.018C807.859 728.614 806.833 729.981 805.238 730.095C805.124 730.095 805.01 730.095 804.896 730.095C798.059 729.981 794.755 729.525 786.095 729.525C780.739 729.525 772.991 730.095 765.584 730.095C758.178 730.095 757.836 722.802 760.913 722.118C774.7 719.156 776.865 715.053 781.423 711.179C782.335 710.495 783.36 710.153 784.386 710.153Z" fill="#263238"/>
<path d="M671.123 703.657L689.354 711.179C690.038 711.406 690.38 712.09 690.152 712.774L686.278 728.044C685.822 729.525 684.341 730.437 682.859 729.981C682.745 729.981 682.631 729.867 682.518 729.867C676.25 727.132 673.288 725.537 665.312 722.118C660.412 720.067 649.929 716.42 643.206 713.572C636.369 710.723 638.876 703.885 641.953 704.455C655.74 706.962 662.349 705.367 668.046 703.544C669.072 703.202 670.097 703.202 671.123 703.657Z" fill="#263238"/>
<path opacity="0.2" d="M678.757 668.331L674.427 689.641L691.633 692.832L695.735 672.32L678.757 668.331Z" fill="black"/>
<path opacity="0.2" d="M804.782 671.636H787.234L786.551 692.49H804.099L804.782 671.636Z" fill="black"/>
<path d="M812.645 211.256C819.937 212.851 827.686 239.061 827.686 239.061L807.061 260.941C807.061 260.941 789.969 236.326 793.502 227.324C797.148 217.866 803.985 209.433 812.645 211.256Z" fill="#407BFF"/>
<path opacity="0.4" d="M801.022 227.893C797.376 224.475 794.755 225.5 793.16 228.235C791.451 235.984 801.364 252.28 805.352 258.547C807.289 251.14 809.454 235.642 801.022 227.893Z" fill="black"/>
<path d="M720.234 212.852C720.234 212.852 711.802 216.27 728.666 334.67H800.11C798.857 301.281 798.857 280.769 812.758 212.282C802.731 209.889 792.59 208.407 782.335 207.724C771.51 206.812 760.685 206.812 749.86 207.724C736.073 209.205 720.234 212.852 720.234 212.852Z" fill="#407BFF"/>
<path opacity="0.4" d="M719.778 251.254C720.234 256.268 720.804 261.852 721.601 268.234C727.413 262.992 732.198 248.064 730.489 239.289C726.273 242.708 722.741 246.696 719.778 251.254Z" fill="black"/>
<path d="M712.6 234.161C709.295 242.822 705.649 251.71 702.003 260.257C700.066 264.473 698.129 268.804 696.191 273.02C694.254 277.236 692.089 281.225 689.81 285.099C689.241 286.011 688.671 287.036 688.101 287.834L687.19 289.202L686.734 289.885L686.506 290.227L686.392 290.455C685.708 291.481 684.683 292.392 683.543 292.962C680.239 294.671 676.593 295.697 672.946 295.811C663.945 296.267 654.943 295.697 646.169 293.874L643.32 302.306C652.778 306.637 662.805 309.144 673.174 309.828C679.099 310.283 685.025 309.258 690.494 306.979C693.685 305.497 696.647 303.332 698.926 300.711L699.382 300.141L699.724 299.799L700.293 299.002L701.547 297.406C702.345 296.381 703.028 295.241 703.826 294.216C709.295 285.783 714.081 277.008 718.297 267.892C722.513 258.889 726.159 250.001 729.464 240.657L712.6 234.161Z" fill="#FFC3BD"/>
<path d="M720.348 211.826C711.574 213.877 700.863 237.808 700.863 237.808L720.69 267.664C720.69 267.664 743.024 234.047 740.175 224.817C737.326 215.131 730.945 209.205 720.348 211.826Z" fill="#407BFF"/>
<path d="M648.334 303.332L632.837 309.486L632.153 294.443C632.153 294.443 644.915 291.481 651.068 295.583L648.334 303.332Z" fill="#FFC3BD"/>
<path d="M620.645 312.221L619.164 299.458L632.153 294.444L632.837 309.486L620.645 312.221Z" fill="#FFC3BD"/>
<path d="M789.285 150.518C786.095 167.611 785.069 174.904 775.27 182.653C760.571 194.277 740.175 186.642 738.238 168.979C736.414 153.025 741.998 127.727 759.659 122.941C772.307 119.522 785.411 126.929 788.83 139.464C789.855 143.225 790.083 146.871 789.285 150.518Z" fill="#FFC3BD"/>
<path d="M749.518 153.823C744.505 162.369 753.848 173.879 744.504 185.73C735.161 197.581 718.297 215.244 742.226 235.984C766.04 256.61 806.833 250.685 814.582 222.424C822.33 194.163 803.643 195.53 809.226 175.246C814.81 154.962 813.67 112.913 784.614 119.864C772.877 99.4658 740.061 100.719 729.805 115.989C721.146 128.98 733.338 143.681 749.518 153.823Z" fill="#263238"/>
<path d="M745.188 153.823C743.821 156.785 743.251 160.204 743.821 163.395C744.505 167.611 747.695 167.611 750.088 164.42C752.481 161.23 754.304 156.102 752.367 152.683C750.43 149.264 746.897 150.29 745.188 153.823Z" fill="#FFC3BD"/>
<path d="M747.809 338.088C747.809 338.088 757.95 451.588 768.433 515.517C776.865 567.139 783.588 687.931 783.588 687.931H807.403C807.403 687.931 815.835 570.785 811.619 519.733C800.68 390.394 825.065 379.91 799.997 338.088H747.809Z" fill="#263238"/>
<path opacity="0.4" d="M771.624 358.259C765.357 367.261 756.925 377.631 754.19 388.799C756.241 409.083 758.634 431.532 761.255 453.183C767.977 435.064 779.372 399.169 771.624 358.259Z" fill="black"/>
<path d="M729.008 338.088C729.008 338.088 709.181 465.604 702.23 515.631C694.938 567.822 673.744 684.513 673.744 684.513L697.217 687.931C697.217 687.931 737.326 577.053 744.732 525.887C752.936 470.163 792.248 338.088 792.248 338.088H729.008Z" fill="#263238"/>
<path d="M670.326 684.399L700.294 689.527L703.712 678.245L671.579 672.775L670.326 684.399Z" fill="#263238"/>
<path d="M780.284 688.958H810.707L812.303 678.245L780.056 677.106L780.284 688.958Z" fill="#263238"/>
<path d="M801.478 335.012L804.668 340.596C804.896 341.052 804.327 341.508 803.529 341.508H727.982C727.299 341.508 726.843 341.28 726.729 340.824L726.045 335.354C726.045 335.012 726.615 334.67 727.299 334.67H800.224C800.794 334.67 801.136 334.784 801.478 335.012Z" fill="#263238"/>
<path d="M791.336 342.647H792.932C793.274 342.647 793.501 342.419 793.501 342.192L792.818 333.986C792.818 333.758 792.476 333.53 792.248 333.53H790.653C790.311 333.53 790.083 333.758 790.083 333.986L790.767 342.192C790.767 342.533 790.995 342.647 791.336 342.647Z" fill="#407BFF"/>
<path d="M744.619 342.647H746.214C746.556 342.647 746.784 342.419 746.784 342.192L746.1 333.986C746.1 333.758 745.758 333.53 745.53 333.53H743.935C743.593 333.53 743.365 333.758 743.365 333.986L744.049 342.192C744.049 342.533 744.277 342.647 744.619 342.647Z" fill="#407BFF"/>
<path d="M476.752 186.317C481.082 199.422 485.754 212.299 490.768 225.176C493.275 231.557 495.782 238.053 498.516 244.434C501.251 250.816 503.986 257.197 507.062 263.579L508.202 265.972L508.771 267.226L509.569 268.707C510.025 269.733 510.595 270.644 511.164 271.556C511.734 272.467 512.304 273.379 512.873 274.177C515.266 277.481 517.887 280.558 520.85 283.293C526.205 288.421 532.244 292.979 538.625 296.968C550.818 304.489 563.808 310.415 577.481 314.631L581.925 303.691C576.342 300.5 570.416 297.082 564.947 293.435C559.478 289.789 554.008 286.142 548.995 282.04C544.095 278.279 539.537 273.949 535.435 269.277C533.612 267.112 531.903 264.832 530.421 262.439C530.079 261.87 529.738 261.3 529.51 260.73C529.168 260.16 528.94 259.59 528.712 259.021L528.37 258.223L527.914 257.083L527.003 254.804C522.103 242.497 517.545 229.734 512.987 216.971L501.707 195.661L476.752 186.317Z" fill="#FFC3BD"/>
<path d="M576 301.184L593.661 308.249L582.95 326.254C582.95 326.254 573.835 316.796 572.125 311.668L576 301.184Z" fill="#FFC3BD"/>
<path d="M601.41 319.189L591.154 326.596L582.95 326.368L593.661 308.363L601.41 319.189Z" fill="#FFC3BD"/>
<path d="M538.626 302.096C541.702 303.805 544.779 305.401 547.855 306.882C550.932 308.363 554.008 309.617 557.313 310.984C560.389 312.238 563.58 312.01 566.315 310.643L561.643 308.705C558.224 304.375 562.212 293.663 568.252 295.6C569.505 296.626 571.1 297.766 572.696 299.019C572.354 295.942 570.645 292.979 568.024 291.156L567.682 290.928C565.289 289.219 562.668 287.396 560.275 285.686C558.11 284.091 555.945 282.495 553.894 280.786L529.168 296.056C532.472 298.563 535.549 300.387 538.626 302.096Z" fill="#407BFF"/>
<path d="M520.28 222.669C520.28 222.669 528.484 265.06 553.894 280.672V291.84L538.511 296.74L529.054 295.942C529.054 295.942 499.086 267.909 498.402 244.32C497.718 220.732 503.644 234.976 503.644 234.976" fill="#407BFF"/>
<path d="M498.972 187.457C483.817 172.414 464.446 173.668 464.674 189.394C466.839 212.299 478.803 226.543 490.312 245.688L520.28 222.555C515.836 209.45 508.657 197.371 498.972 187.457Z" fill="#407BFF"/>
<path opacity="0.3" d="M495.554 224.378C491.793 219.022 487.236 214.92 482.108 212.071C485.071 233.495 491.793 249.221 505.581 266.656C506.492 267.795 509.455 272.581 509.569 272.695L512.76 277.254C512.76 277.368 513.215 277.937 513.215 277.823C511.848 268.365 503.416 234.634 495.554 224.378Z" fill="black"/>
<path opacity="0.3" d="M481.31 210.589C477.208 206.829 472.308 203.866 467.067 202.157C471.625 218.111 481.196 230.304 490.426 245.574L500.681 237.711C498.288 230.19 489.628 217.769 481.31 210.589Z" fill="black"/>
<path d="M544.55 712.905L559.477 708.916L550.59 673.476L535.663 677.465L544.55 712.905Z" fill="#FFC3BD"/>
<path d="M559.591 704.814L542.955 710.284C542.385 710.512 542.044 711.082 542.158 711.651L545.69 725.098C546.032 726.466 547.741 727.377 549.108 726.922C554.806 724.87 557.54 723.731 564.833 721.224C569.391 719.742 580.216 716.438 586.369 714.386C592.408 712.335 590.357 706.296 587.622 706.523C574.974 707.891 567.682 706.751 562.326 704.928C561.529 704.586 560.503 704.586 559.591 704.814Z" fill="#263238"/>
<path opacity="0.2" d="M535.663 677.579L550.59 673.59L555.147 691.823L540.22 695.812L535.663 677.579Z" fill="black"/>
<path d="M498.174 315.428C498.174 315.428 519.255 442.261 525.522 486.589C532.358 535.021 557.882 680.883 557.882 680.883L532.586 690.456C532.586 690.456 492.363 547.1 481.196 500.036C469.118 448.87 442.455 315.542 442.455 315.542L498.174 315.428Z" fill="#2E353A"/>
<path opacity="0.3" d="M498.174 315.428C498.174 315.428 519.255 442.261 525.522 486.589C532.358 535.021 557.882 680.883 557.882 680.883L532.586 690.456C532.586 690.456 492.363 547.1 481.196 500.036C469.118 448.87 442.455 315.542 442.455 315.542L498.174 315.428Z" fill="#2E353A"/>
<path opacity="0.3" d="M464.332 367.506C475.157 394.4 476.297 440.096 471.967 458.785C465.358 428.017 457.837 391.209 451.912 362.606C454.077 355.313 457.837 351.097 464.332 367.506Z" fill="black"/>
<path d="M531.561 693.874L560.845 685.1L560.047 673.135L525.18 683.276L531.561 693.874Z" fill="#407BFF"/>
<path d="M568.251 704.017C568.593 703.447 568.479 702.763 568.023 701.965C567.795 701.509 567.34 701.282 566.884 701.282C564.833 701.168 561.642 705.384 561.187 705.84C561.073 705.954 561.073 706.068 561.187 706.182C561.3 706.296 561.414 706.41 561.528 706.41C562.668 706.296 564.263 706.068 565.63 705.612C566.884 705.27 567.795 704.814 568.251 704.017ZM566.884 701.965C567.112 701.965 567.34 702.079 567.454 702.307C567.795 702.763 567.795 703.219 567.567 703.675C567.112 704.587 565.175 705.27 562.326 705.612C563.693 704.017 565.744 701.965 566.884 701.965Z" fill="#407BFF"/>
<path d="M561.87 706.296C563.01 704.928 564.263 701.168 563.352 699.572C563.01 699.002 562.44 698.774 561.757 698.888C561.187 699.002 560.731 699.344 560.503 699.8C559.478 701.737 561.187 705.84 561.301 706.068C561.301 706.182 561.415 706.296 561.529 706.296C561.643 706.296 561.643 706.296 561.643 706.296C561.756 706.41 561.757 706.41 561.87 706.296ZM561.87 699.686C562.44 699.572 562.554 699.8 562.668 700.028C563.238 701.054 562.554 703.903 561.643 705.384C561.187 704.017 560.503 701.51 561.073 700.37C561.187 700.142 561.415 699.914 561.87 699.686C561.757 699.8 561.87 699.686 561.87 699.686Z" fill="#407BFF"/>
<path d="M411.803 711.082H427.413L431.174 674.958H415.563L411.803 711.082Z" fill="#FFC3BD"/>
<path d="M428.781 709.258H411.233C410.55 709.258 410.094 709.714 410.094 710.284L409.296 724.187C409.182 725.668 410.55 726.922 412.031 726.922C418.184 726.808 421.033 726.466 428.781 726.466C433.567 726.466 446.557 726.922 453.166 726.922C459.547 726.922 459.547 720.426 456.698 719.856C444.278 717.235 435.96 713.589 431.516 710.17C430.718 709.6 429.693 709.258 428.781 709.258Z" fill="#263238"/>
<path opacity="0.2" d="M415.563 674.958H431.174L429.237 693.533H413.626L415.563 674.958Z" fill="black"/>
<path d="M467.75 315.428C467.75 315.428 466.383 450.807 463.876 495.478C461.142 544.365 435.617 689.088 435.617 689.088H407.131C407.131 689.088 419.551 548.239 417.842 499.808C416.019 447.275 414.879 315.314 414.879 315.314H467.75V315.428Z" fill="#2E353A"/>
<path opacity="0.3" d="M467.75 315.428C467.75 315.428 466.383 450.807 463.876 495.478C461.142 544.365 435.617 689.088 435.617 689.088H407.131C407.131 689.088 419.551 548.239 417.842 499.808C416.019 447.275 414.879 315.314 414.879 315.314H467.75V315.428Z" fill="#2E353A"/>
<path d="M405.878 689.089H440.745L442.455 678.263L404.396 679.972L405.878 689.089Z" fill="#407BFF"/>
<path d="M437.213 711.196C437.669 710.74 437.897 710.056 437.669 709.259C437.555 708.803 437.213 708.347 436.871 708.233C434.934 707.435 430.604 710.512 430.034 710.854C429.92 710.968 429.92 711.082 429.92 711.196C429.92 711.31 430.034 711.424 430.148 711.538C431.288 711.766 432.883 712.108 434.25 712.108C435.504 711.994 436.643 711.766 437.213 711.196ZM436.529 708.917C436.757 709.031 436.871 709.144 436.985 709.486C437.099 710.056 436.985 710.512 436.757 710.74C436.074 711.424 434.022 711.538 431.174 710.968C432.997 709.828 435.504 708.461 436.529 708.917Z" fill="#407BFF"/>
<path d="M430.376 711.424C431.971 710.512 434.25 707.207 433.908 705.498C433.795 704.928 433.339 704.472 432.541 704.358C431.971 704.244 431.402 704.472 430.946 704.928C429.351 706.41 429.692 710.968 429.692 711.082C429.692 711.196 429.806 711.31 429.92 711.424H430.034C430.262 711.424 430.376 711.424 430.376 711.424ZM432.541 705.156C433.111 705.27 433.225 705.498 433.225 705.726C433.453 706.866 431.971 709.259 430.604 710.399C430.604 708.917 430.718 706.41 431.629 705.498C431.857 705.27 432.085 705.156 432.541 705.156C432.427 705.156 432.427 705.156 432.541 705.156Z" fill="#407BFF"/>
<path d="M491.565 188.824C489.97 183.582 485.412 179.48 480.057 178.454C475.841 177.656 473.79 176.973 468.434 176.403C459.091 175.605 443.594 175.947 432.997 176.403C426.844 176.745 420.463 177.428 415.449 178.226H415.221C409.638 179.024 405.878 184.266 406.903 189.736C409.524 204.094 413.626 229.392 414.537 252.867C415.791 283.749 414.082 321.582 414.651 328.989H497.946C503.188 253.779 496.693 205.917 491.565 188.824Z" fill="#F3F7FF"/>
<path d="M435.39 174.922C441.999 201.587 448.607 291.498 448.494 344.259H413.284C412.6 336.396 413.74 288.421 412.486 255.83C411.461 230.988 407.131 204.322 404.396 189.166C403.371 183.354 407.359 177.884 413.17 176.973H413.398C418.64 176.175 425.362 175.377 431.857 175.036C432.997 174.922 434.136 174.922 435.39 174.922Z" fill="#407BFF"/>
<path d="M495.895 189.166C493.73 183.012 488.945 178.454 483.247 177.315C478.917 176.517 468.662 175.605 466.497 175.605C473.22 198.738 486.096 291.726 482.222 344.259H504.555C509.683 265.288 500.795 203.638 495.895 189.166Z" fill="#407BFF"/>
<path d="M438.239 331.724L446.329 336.738L426.958 346.88C426.958 346.88 415.335 336.282 421.147 330.243L424.109 329.445C429.009 328.306 434.023 329.103 438.239 331.724Z" fill="#FFC3BD"/>
<path d="M448.494 349.957L436.073 358.732C434.478 359.871 432.199 359.301 431.402 357.364L426.844 346.88L446.215 336.738L449.633 345.741C450.317 347.222 449.861 349.045 448.494 349.957Z" fill="#FFC3BD"/>
<path opacity="0.3" d="M412.031 250.588C411.233 229.506 406.675 208.994 402.687 188.254C402.004 184.949 407.587 181.645 410.664 183.012C413.626 184.266 416.133 187.115 417.045 192.357C418.754 202.043 420.121 223.808 412.031 250.588Z" fill="black"/>
<path d="M431.174 135.835C431.744 140.507 432.085 145.065 432.313 149.623C432.427 151.219 434.25 153.384 435.96 152.586C437.669 151.675 439.15 145.521 438.58 143.128C438.011 140.735 439.834 135.607 436.529 134.239C433.111 132.644 431.174 135.835 431.174 135.835Z" fill="#1A2E35"/>
<path d="M433.339 135.835L443.138 143.926L456.47 154.979C456.128 156.803 455.786 158.626 455.672 160.335C454.989 167.628 456.812 174.124 467.523 176.745C467.523 176.745 478.006 186.545 457.04 186.887C436.074 187.229 431.174 176.973 431.174 176.973C439.15 169.11 436.074 147.572 433.339 135.835Z" fill="#FFC3BD"/>
<path opacity="0.2" d="M455.786 158.968C455.33 161.019 455.558 163.526 455.558 165.007C447.012 163.982 441.429 156.347 441.543 151.219C441.543 149.282 441.771 147.458 442.112 146.205L455.786 158.968Z" fill="black"/>
<path d="M474.246 105.979C479.943 112.246 475.841 132.986 469.802 130.251C463.876 127.402 464.788 95.4946 474.246 105.979Z" fill="#1A2E35"/>
<path d="M431.971 119.312C433.111 135.38 432.997 144.724 441.087 153.157C453.393 165.806 472.992 158.969 476.638 143.129C479.943 128.884 477.55 105.068 461.825 98.3444C446.329 91.6211 430.832 103.245 431.971 119.312Z" fill="#FFC3BD"/>
<path d="M433.567 131.96C436.529 129.225 439.834 120.109 438.466 117.374C441.429 115.551 445.189 109.055 443.48 106.092C448.836 106.434 475.043 116.918 483.361 98.2295C480.399 98.6853 474.815 96.976 474.815 96.976C474.815 96.976 481.652 88.5433 472.309 84.4409C470.144 88.8852 458.293 87.6317 452.482 86.6061C440.517 84.4409 426.046 87.4038 430.262 97.5458C420.691 100.053 417.614 117.944 433.567 131.96Z" fill="#1A2E35"/>
<path d="M432.313 97.0909C432.313 97.0909 426.16 97.4328 428.439 90.0251C422.856 93.558 424.907 101.649 432.313 97.0909Z" fill="#1A2E35"/>
<path d="M427.413 133.328C429.236 136.633 432.313 138.912 435.162 139.823C439.492 141.191 441.315 137.43 439.947 133.214C438.694 129.453 434.934 124.211 430.832 124.553C426.616 125.009 425.248 129.567 427.413 133.328Z" fill="#FFC3BD"/>
<path d="M437.441 123.87C437.441 123.87 439.036 135.493 443.48 142.444C445.303 145.293 447.468 147.8 450.317 149.51C452.824 150.991 456.128 152.017 458.977 152.017C462.851 152.017 463.649 147.572 463.307 144.496L467.409 144.61C467.067 144.61 467.181 148.598 467.181 148.94C467.295 149.738 467.523 150.763 468.32 151.219C470.713 152.7 473.334 150.649 474.36 148.598C475.613 146.319 476.638 141.875 477.094 139.254C477.55 144.723 477.664 151.333 474.587 156.233C472.309 159.88 467.295 162.842 463.079 163.412C456.926 164.21 450.203 162.387 445.189 158.512C440.404 154.866 437.783 149.168 436.301 143.47C434.82 137.43 434.934 131.277 434.934 125.123L437.441 123.87Z" fill="#1A2E35"/>
<path d="M458.407 124.553C458.407 125.807 459.091 126.947 460.002 126.947C460.914 126.947 461.484 125.921 461.484 124.667C461.484 123.3 460.8 122.274 459.888 122.274C458.977 122.16 458.293 123.186 458.407 124.553Z" fill="#1A2E35"/>
<path d="M473.106 124.895C473.106 126.149 473.79 127.288 474.701 127.288C475.613 127.288 476.183 126.263 476.183 125.009C476.183 123.756 475.499 122.616 474.587 122.616C473.676 122.616 472.992 123.642 473.106 124.895Z" fill="#1A2E35"/>
<path d="M468.548 124.781C468.548 124.781 470.713 131.391 473.22 134.696C471.169 136.292 467.864 135.152 467.864 135.152L468.548 124.781Z" fill="#ED847E"/>
<path d="M467.067 141.533C461.939 141.533 459.091 138.342 458.977 138.114C458.863 138 458.863 137.772 458.977 137.544C459.091 137.43 459.432 137.43 459.546 137.544C459.546 137.544 462.851 141.191 468.548 140.621C468.776 140.621 469.004 140.735 469.004 140.963C469.004 141.191 468.89 141.305 468.662 141.419C468.092 141.533 467.523 141.533 467.067 141.533Z" fill="#1A2E35"/>
<path d="M451.228 115.437C451.114 115.437 451 115.323 450.886 115.209C450.658 114.867 450.658 114.411 451 114.183C454.191 111.448 457.609 112.588 457.723 112.588C458.065 112.702 458.293 113.158 458.179 113.5C458.065 113.842 457.609 114.07 457.267 113.956C457.153 113.956 454.533 113.158 452.026 115.209C451.798 115.551 451.57 115.551 451.228 115.437Z" fill="#1A2E35"/>
<path d="M479.145 116.349C478.917 116.349 478.69 116.349 478.462 116.121C476.183 113.5 473.334 113.842 473.334 113.842C472.878 113.842 472.536 113.614 472.422 113.158C472.309 112.702 472.65 112.36 473.106 112.246C473.22 112.246 476.752 111.79 479.601 114.981C479.943 115.323 479.829 115.779 479.487 116.007C479.487 116.235 479.259 116.349 479.145 116.349Z" fill="#1A2E35"/>
<path d="M463.535 189.964L461.484 194.978C461.142 195.89 460.23 196.574 459.205 196.688L453.052 197.144C452.14 197.258 451.342 196.802 450.773 196.118L446.557 190.99L454.419 186.089L463.535 189.964Z" fill="#2E353A"/>
<path d="M458.749 194.978C458.749 194.978 467.978 250.816 471.169 265.288C471.511 275.886 466.269 292.296 466.269 292.296C466.269 292.296 456.356 273.493 456.356 265.858C456.356 251.841 454.305 194.864 454.305 194.864H458.749V194.978Z" fill="#2E353A"/>
<path d="M446.785 195.433C446.785 195.433 448.722 189.85 454.305 186.089C442.455 182.67 433.339 173.212 433.339 173.212L427.983 175.263C428.097 175.263 428.097 189.052 446.785 195.433Z" fill="white"/>
<path d="M464.902 194.18C464.902 194.18 463.42 189.736 454.305 186.089C459.546 184.608 461.483 174.124 461.483 174.124L466.497 175.149C466.611 175.149 478.006 189.964 464.902 194.18Z" fill="white"/>
<path d="M405.878 181.303L404.51 182.784L403.485 183.924C402.801 184.722 402.231 185.405 401.548 186.203C400.294 187.685 399.269 189.28 398.129 190.761C395.964 193.838 394.027 197.029 392.204 200.22C388.558 206.715 385.709 213.438 383.43 220.39C381.151 227.341 379.328 234.406 378.303 241.585C377.163 248.765 376.593 255.944 376.479 263.009C376.365 266.2 376.479 271.1 377.163 275.088C377.847 279.191 378.872 283.065 380.24 286.712C382.746 294.005 386.279 300.158 389.925 305.97C393.685 311.668 397.901 317.024 402.345 321.81C406.903 326.71 411.347 331.04 416.703 335.257C420.007 337.764 424.565 336.966 427.072 333.433C429.123 330.585 429.009 326.824 427.186 324.089L426.958 323.747C423.767 319.075 420.463 313.833 417.5 308.819C414.538 303.691 411.803 298.563 409.524 293.321C407.245 288.193 405.422 282.951 404.282 277.937C403.713 275.43 403.371 273.037 403.257 270.872C403.143 268.593 403.257 266.997 403.599 263.807C404.738 252.297 407.131 241.244 411.005 230.874C412.942 225.746 415.335 220.732 417.956 216.059C419.209 213.666 420.691 211.387 422.172 209.336C422.856 208.31 423.653 207.285 424.451 206.259L425.476 204.892L425.932 204.322L426.16 204.094L426.274 203.98C426.274 203.98 426.388 203.866 426.16 204.094C432.199 198.054 432.541 187.912 427.072 181.645C422.628 176.631 414.765 175.605 409.866 177.998C408.271 178.796 407.131 180.163 405.878 181.303Z" fill="#407BFF"/>
<path d="M139.471 553.482H318.936C312.669 539.921 301.275 531.488 288.968 531.488H149.498L139.471 553.482Z" fill="#D9E5FF"/>
<path d="M109.275 553.482H181.175C174.908 539.921 163.513 531.488 151.207 531.488H125.797C113.491 531.602 107.338 538.668 109.275 553.482Z" fill="#ABC5FF"/>
<path d="M235.869 743.331H220.258V553.481H203.166V743.331H187.556L170.806 758.943H203.166H220.258H252.619L235.869 743.331Z" fill="#407BFF"/>
<path opacity="0.7" d="M235.869 743.331H220.258V553.481H203.166V743.331H187.556L170.806 758.943H203.166H220.258H252.619L235.869 743.331Z" fill="white"/>
<path opacity="0.5" d="M220.258 553.481H203.167V559.863H220.258V553.481Z" fill="#407BFF"/>
<path d="M54.4666 454.34C51.9597 452.973 52.8713 439.298 53.8968 431.549C55.2642 422.205 59.1384 405.568 71.6725 396.337C77.5977 392.007 83.295 388.246 84.3206 383.46C86.1437 387.677 96.5128 417.647 81.6998 431.207C69.2796 442.603 59.936 440.096 54.4666 454.34Z" fill="#407BFF"/>
<g opacity="0.2">
<path opacity="0.2" d="M54.4666 454.34C51.9597 452.973 52.8713 439.298 53.8968 431.549C55.2642 422.205 59.1384 405.568 71.6725 396.337C77.5977 392.007 83.295 388.246 84.3206 383.46C86.1437 387.677 96.5128 417.647 81.6998 431.207C69.2796 442.603 59.936 440.096 54.4666 454.34Z" fill="black"/>
</g>
<path d="M57.7707 446.705C60.6194 445.11 57.315 429.27 54.6942 420.268C51.5037 409.328 43.8693 390.069 26.5494 379.585C18.3452 374.571 10.5969 370.355 8.54584 364.771C6.95058 369.671 1.82299 408.188 22.5613 423.686C40.3369 436.791 48.5411 430.182 57.7707 446.705Z" fill="#407BFF"/>
<path d="M56.4037 443.173C56.2898 443.173 56.0619 443.059 56.0619 442.831C51.7319 429.498 46.3764 416.507 39.8815 404.2C29.2845 383.346 15.1551 380.042 15.0411 379.928C14.8133 379.928 14.6993 379.7 14.8133 379.472C14.8133 379.244 15.0411 379.13 15.269 379.13C15.383 379.13 29.9681 382.662 40.6791 403.744C47.1741 416.165 52.5296 429.156 56.8595 442.603C56.7456 442.831 56.6316 443.059 56.4037 443.173Z" fill="white"/>
<path d="M11.5087 393.602C11.3947 393.602 11.2808 393.602 11.2808 393.488C11.1668 393.374 11.1668 393.147 11.2808 392.919C16.6363 387.79 24.6125 386.651 31.2214 390.07C31.4493 390.183 31.4493 390.411 31.4493 390.525C31.3354 390.753 31.1075 390.753 30.9935 390.753C24.7265 387.562 17.092 388.702 11.9645 393.602C11.7366 393.602 11.6226 393.602 11.5087 393.602Z" fill="white"/>
<path d="M26.4357 419.357C26.3218 419.357 26.3218 419.357 26.2078 419.357C25.9799 419.243 25.9799 419.015 26.0939 418.787C26.0939 418.673 33.1586 407.049 43.4138 409.898C43.6416 409.898 43.7556 410.126 43.6417 410.354C43.6417 410.581 43.4138 410.695 43.1859 410.581C33.5004 407.846 26.7776 419.015 26.7776 419.129C26.6636 419.357 26.5497 419.357 26.4357 419.357Z" fill="white"/>
<path d="M37.6025 399.528C37.4885 399.528 37.2606 399.414 37.2606 399.3C36.9188 397.933 37.0328 396.565 37.6025 395.312C38.0583 394.628 38.7419 394.058 39.6535 393.944C39.8814 393.944 39.9954 394.058 40.1093 394.172C40.1093 394.4 39.9954 394.628 39.7675 394.628C39.0838 394.742 38.628 395.084 38.2862 395.654C37.8304 396.679 37.7164 397.933 38.0583 399.072C37.9443 399.3 37.8304 399.414 37.6025 399.528Z" fill="white"/>
<path d="M76.6861 439.412H41.1348L44.4392 469.952H73.4956L76.6861 439.412Z" fill="#407BFF"/>
<path opacity="0.7" d="M76.6861 439.412H41.1348L44.4392 469.952H73.4956L76.6861 439.412Z" fill="white"/>
<path d="M344.004 738.317L362.692 733.645L358.248 688.861L339.561 693.533L344.004 738.317Z" fill="#FFC3BD"/>
<path d="M363.489 725.326L342.067 727.947C341.27 728.061 340.7 728.631 340.814 729.429L341.953 746.522C342.181 748.345 343.89 749.713 345.714 749.485C353.12 748.459 356.083 747.548 365.54 745.724C374.656 744.015 383.658 741.736 392.659 739.115C400.18 736.608 397.559 729.087 394.027 729.429C385.823 730.454 372.833 729.429 366.908 725.896C365.882 725.326 364.629 725.098 363.489 725.326Z" fill="#263238"/>
<path opacity="0.2" d="M339.561 693.533L358.248 688.861L360.413 710.398L341.612 714.501L339.561 693.533Z" fill="black"/>
<path d="M217.524 469.04C217.524 469.04 355.969 464.368 356.425 519.523C357.108 598.722 365.654 697.179 365.654 697.179L330.787 702.307C330.787 702.307 307.086 607.838 307.428 545.96C268.458 535.021 167.387 542.086 155.537 509.95C145.851 483.513 150.865 469.04 150.865 469.04H217.524Z" fill="#263238"/>
<path opacity="0.3" d="M246.238 479.866C246.238 479.866 270.053 517.586 284.524 541.858C292.273 542.656 300.021 544.023 307.541 546.075C307.541 552.114 307.883 558.04 308.453 564.079C331.698 529.551 320.076 486.362 246.238 479.866Z" fill="black"/>
<path d="M328.052 711.538L368.389 703.903L369.187 688.291L324.406 696.154L328.052 711.538Z" fill="#407BFF"/>
<path d="M370.668 727.72C368.959 727.948 367.25 727.948 365.541 727.72C365.313 727.72 365.199 727.606 365.199 727.378C365.199 727.264 365.199 727.036 365.313 726.922C365.882 726.466 370.782 722.022 373.289 722.591C373.859 722.705 374.314 723.161 374.542 723.731C374.884 724.529 374.77 725.554 374.314 726.238C373.175 727.15 371.922 727.72 370.668 727.72ZM366.566 726.922C370.098 727.15 372.605 726.694 373.403 725.782C373.745 725.327 373.745 724.643 373.517 724.187C373.403 723.959 373.175 723.731 372.947 723.617C371.58 723.161 368.617 725.213 366.566 726.922Z" fill="#407BFF"/>
<path d="M365.541 727.72H365.313C365.199 727.72 365.085 727.492 365.085 727.378C365.085 727.15 363.945 721.68 365.541 719.629C365.996 719.059 366.68 718.717 367.364 718.717C368.161 718.603 368.845 719.173 369.187 719.857C369.871 721.908 367.592 726.239 365.768 727.606L365.541 727.72ZM367.136 719.629C366.794 719.629 366.452 719.857 366.224 720.199C365.199 721.452 365.427 724.643 365.768 726.466C367.25 724.871 368.731 721.566 368.275 720.199C368.161 719.971 367.933 719.629 367.364 719.629H367.136Z" fill="#407BFF"/>
<path d="M263.216 742.42L282.359 740.027L285.436 694.786L266.293 697.179L263.216 742.42Z" fill="#FFC3BD"/>
<path d="M282.701 737.292L261.051 736.608C260.254 736.608 259.684 737.178 259.57 737.861L257.975 754.955C257.975 756.778 259.342 758.373 261.279 758.487C268.8 758.601 272.446 758.259 281.903 758.487C287.715 758.715 299.223 759.513 307.314 758.487C315.29 757.462 314.15 749.599 310.618 749.257C302.3 748.573 291.247 742.875 286.005 738.431C285.094 737.747 283.841 737.292 282.701 737.292Z" fill="#263238"/>
<path d="M289.424 740.939C287.715 740.825 286.006 740.597 284.296 740.141C284.182 740.141 283.955 739.913 283.955 739.799C283.955 739.571 284.069 739.457 284.182 739.343C284.752 738.887 290.45 735.354 292.728 736.38C293.298 736.608 293.64 737.064 293.754 737.748C293.982 738.659 293.754 739.571 293.07 740.141C292.045 740.711 290.677 741.053 289.424 740.939ZM285.55 739.457C288.968 740.255 291.475 740.255 292.501 739.343C292.956 738.887 293.07 738.317 292.842 737.748C292.842 737.52 292.615 737.178 292.387 737.064C291.133 736.608 287.829 738.089 285.55 739.457Z" fill="#407BFF"/>
<path d="M284.41 740.027C284.296 740.027 284.296 740.027 284.182 740.027C284.068 739.913 283.955 739.799 283.955 739.685C283.955 739.457 283.727 733.873 285.664 732.05C286.233 731.594 286.917 731.366 287.601 731.48C288.398 731.48 289.082 732.05 289.196 732.847C289.538 734.899 286.575 738.887 284.638 739.913C284.524 740.027 284.524 740.027 284.41 740.027ZM287.259 732.392C286.917 732.392 286.575 732.506 286.233 732.734C285.094 733.759 284.752 736.95 284.752 738.774C286.461 737.406 288.512 734.443 288.285 733.075C288.285 732.847 288.057 732.506 287.487 732.392H287.259Z" fill="#407BFF"/>
<path opacity="0.2" d="M266.293 697.179L285.436 694.786L283.613 720.654L264.584 722.135L266.293 697.179Z" fill="black"/>
<path d="M170.464 469.041C170.464 469.041 308.681 482.145 303.781 523.625C296.489 583.566 292.956 712.791 292.956 712.791L257.747 714.159C257.747 714.159 242.82 597.696 250.568 536.274C214.789 536.274 127.278 538.781 119.188 517.358C112.123 498.327 114.63 469.154 114.63 469.154L170.464 469.041Z" fill="#263238"/>
<path d="M253.645 716.324L295.919 714.272L297.401 695.926L251.024 699.117L253.645 716.324Z" fill="#407BFF"/>
<path d="M230.172 344.829L231.311 354.401C231.767 357.592 232.223 360.897 232.679 364.088C233.704 370.583 234.73 376.965 236.097 383.346C237.465 389.614 238.832 395.881 240.541 401.921C242.136 407.505 244.187 412.974 246.808 418.216C247.834 420.154 248.973 422.091 250.454 423.8C250.682 424.028 251.138 424.484 251.594 424.826C252.05 425.282 252.506 425.623 252.961 426.079C253.873 426.877 255.012 427.675 256.152 428.472C261.165 431.891 266.407 434.854 271.876 437.361C283.727 442.717 295.919 447.275 308.453 451.263L306.174 465.508C298.996 465.28 291.931 464.596 284.866 463.457C281.334 462.887 277.802 462.203 274.497 461.405C271.079 460.494 267.432 459.696 264.014 458.671C256.608 456.619 249.543 453.77 242.82 450.124C240.997 449.098 239.174 448.073 237.465 446.819C236.553 446.249 235.755 445.566 234.844 444.882C233.932 444.198 233.021 443.401 232.109 442.603C228.805 439.412 225.956 435.766 223.563 431.777C219.575 425.054 216.384 417.988 213.992 410.581C211.599 403.744 209.662 396.679 208.066 389.614C206.471 382.662 205.104 375.711 204.078 368.646C203.509 365.113 203.053 361.694 202.597 358.276C202.141 354.857 201.799 351.325 201.458 347.564L230.172 344.829Z" fill="#FFC3BD"/>
<path d="M200.204 330.927C214.333 317.252 231.767 325.343 238.718 350.869C242.706 364.543 245.327 378.56 246.808 392.804L202.027 402.035C193.823 377.648 185.733 344.943 200.204 330.927Z" fill="#407BFF"/>
<path opacity="0.3" d="M215.473 358.846C212.282 355.997 203.166 368.874 197.583 384.828C199.178 390.753 201.001 396.679 202.825 402.035L229.716 396.451C227.551 380.497 222.537 365.341 215.473 358.846Z" fill="black"/>
<path d="M305.491 447.617L316.202 448.301L307.656 467.901C307.656 467.901 289.31 467.445 289.652 458.443L292.957 454.112C296.033 450.238 300.591 447.959 305.491 447.617Z" fill="#FFC3BD"/>
<path d="M327.71 449.896L318.481 467.901H307.656L316.202 448.301L327.71 449.896Z" fill="#FFC3BD"/>
<path d="M140.724 330.927C135.482 346.994 124.202 362.264 120.783 382.32C116.795 404.884 114.744 438.728 114.402 469.496H217.41C219.803 405.339 227.779 367.392 231.539 346.311C233.021 337.878 228.691 329.445 220.942 325.799L202.597 317.138L181.175 310.984L145.51 319.189" fill="#407BFF"/>
<path opacity="0.3" d="M131.267 334.117C127.278 348.704 123.746 366.481 120.897 382.207C118.391 398.274 116.681 414.456 115.884 430.752C132.862 429.042 151.549 409.556 157.588 383.232C163.399 357.706 149.612 331.041 131.267 334.117Z" fill="black"/>
<path d="M171.034 277.026L182.542 286.94L198.267 300.387C197.241 302.21 196.558 304.261 196.33 306.312C195.532 310.87 194.735 314.403 204.762 317.708C206.927 318.391 208.636 320.215 208.864 322.494C209.092 325.229 207.269 328.534 197.697 329.559C188.468 330.357 179.124 328.306 171.262 323.519C167.388 321.354 167.388 318.847 169.439 314.973C175.136 303.577 173.541 288.649 171.034 277.026Z" fill="#FFC3BD"/>
<path d="M163.399 338.334C161.69 341.411 159.753 345.057 157.93 348.362C156.107 351.781 154.397 355.199 152.688 358.732C149.27 365.683 146.079 372.634 143.117 379.586C140.268 386.309 137.875 393.26 135.938 400.439C135.141 403.516 134.571 406.707 134.229 409.898C133.887 412.633 134.343 415.71 134.229 415.026C135.254 416.735 136.508 418.103 138.217 419.242C140.838 421.179 143.573 422.889 146.535 424.256C153.258 427.447 160.209 430.182 167.387 432.461C174.566 434.74 182.314 436.791 189.721 438.842C197.241 440.894 205.218 442.603 212.738 444.198L211.371 458.557C194.735 458.329 178.212 456.506 161.804 453.429C153.258 451.833 144.94 449.44 136.85 446.477C132.406 444.768 128.076 442.717 123.974 440.096C118.732 437.019 114.288 432.575 111.098 427.333C110.186 425.624 109.389 423.8 108.819 421.863L108.477 420.382L108.249 419.242C108.021 418.444 107.907 417.761 107.793 416.963C107.452 414.228 107.224 411.493 107.224 408.758C107.338 403.972 107.907 399.072 108.819 394.4C110.642 385.739 113.035 377.307 116.225 369.102C119.188 361.239 122.492 353.604 126.253 345.855C128.076 342.094 130.013 338.334 131.95 334.687C133.887 330.927 135.938 327.394 138.217 323.634L163.399 338.334Z" fill="#FFC3BD"/>
<path d="M135.369 322.38C154.739 319.417 176.503 323.861 167.387 348.704C162.602 362.15 156.677 375.141 149.612 387.448L107.793 369.216C113.719 349.501 130.469 325.685 135.369 322.38Z" fill="#407BFF"/>
<path d="M214.334 444.312L225.956 448.301L210.573 463.001C210.573 463.001 191.772 456.278 195.532 448.073L200.318 445.338C204.648 443.059 209.776 442.717 214.334 444.312Z" fill="#FFC3BD"/>
<path d="M239.63 456.164L222.196 466.419L210.573 463.115L225.956 448.415L239.63 456.164Z" fill="#FFC3BD"/>
<path opacity="0.2" d="M182.884 291.954L197.355 304.147C196.786 306.54 196.33 308.819 196.216 311.212C190.746 310.415 183.34 304.603 182.77 298.905C182.314 295.942 182.428 293.207 182.884 291.954Z" fill="black"/>
<path d="M210.232 274.177C223.791 274.861 235.642 244.434 215.701 241.016C202.255 238.737 201.913 242.839 200.774 251.614C199.634 260.388 201.686 273.721 210.232 274.177Z" fill="#1A2E35"/>
<path d="M176.845 257.881C173.768 274.86 171.148 284.547 177.529 295.258C187.1 311.212 209.547 308.705 217.638 292.979C224.93 278.849 228.69 253.551 213.877 242.839C199.292 232.355 179.807 240.902 176.845 257.881Z" fill="#FFC3BD"/>
<path d="M174.224 269.961C187.784 270.644 196.102 239.42 176.161 236.002C162.716 233.723 161.804 241.472 162.26 249.904C162.716 258.679 165.564 269.619 174.224 269.961Z" fill="#1A2E35"/>
<path d="M223.449 229.962C223.791 220.846 210.459 208.425 200.888 222.213C188.012 215.49 145.054 227.455 182.77 243.751C199.292 256.514 231.311 258.337 236.439 247.739C241.567 237.141 229.944 227.455 223.449 229.962Z" fill="#1A2E35"/>
<path d="M166.362 270.986C167.16 275.202 169.666 278.735 172.515 280.672C176.731 283.635 180.491 279.988 180.605 274.974C180.719 270.416 178.668 263.351 173.768 262.439C168.869 261.528 165.564 266.086 166.362 270.986Z" fill="#FFC3BD"/>
<path d="M201.002 268.707C200.66 270.075 201.116 271.328 202.027 271.556C202.939 271.784 203.85 270.872 204.192 269.505C204.534 268.137 204.078 266.884 203.167 266.656C202.369 266.428 201.344 267.34 201.002 268.707Z" fill="#1A2E35"/>
<path d="M216.384 272.468C216.043 273.835 216.498 275.089 217.41 275.317C218.322 275.545 219.233 274.633 219.575 273.265C219.917 271.898 219.461 270.644 218.55 270.416C217.752 270.188 216.726 271.214 216.384 272.468Z" fill="#1A2E35"/>
<path d="M211.371 272.012C211.371 272.012 212.51 280.673 215.017 285.231C212.054 286.941 208.18 284.89 208.18 284.89L211.371 272.012Z" fill="#ED847E"/>
<path d="M201.572 287.054C196.558 285.117 195.077 280.9 194.963 280.672C194.849 280.444 194.963 280.217 195.191 280.103C195.418 279.989 195.646 280.103 195.76 280.33C195.76 280.33 197.583 285.231 203.509 286.713C203.737 286.713 203.851 286.94 203.851 287.168C203.851 287.396 203.623 287.51 203.395 287.51C202.711 287.51 202.141 287.282 201.572 287.054Z" fill="#1A2E35"/>
<path d="M197.469 262.668C197.355 262.668 197.241 262.554 197.127 262.44C196.785 262.098 196.899 261.528 197.241 261.3C200.774 258.451 204.42 259.591 204.534 259.591C204.99 259.705 205.217 260.16 205.104 260.616C204.99 261.072 204.534 261.3 204.078 261.186C203.964 261.186 201.115 260.274 198.267 262.554C198.039 262.668 197.811 262.782 197.469 262.668Z" fill="#1A2E35"/>
<path d="M224.361 268.821C224.133 268.707 223.905 268.479 223.905 268.252C223.107 264.719 220.373 263.579 220.259 263.579C219.803 263.465 219.575 262.895 219.803 262.553C219.917 262.097 220.486 261.87 220.828 262.097C220.942 262.211 224.475 263.579 225.5 268.024C225.614 268.479 225.272 268.935 224.816 269.049C224.702 268.935 224.475 268.935 224.361 268.821Z" fill="#1A2E35"/>
<path d="M131.95 325.685L135.255 322.38C135.255 322.38 138.901 319.987 147.789 318.733C156.677 317.594 159.867 321.012 159.867 321.012L153.486 339.473L140.268 341.638L136.508 337.194L131.95 325.685Z" fill="#407BFF"/>
<path d="M346.967 464.14H157.132C154.739 464.14 152.802 466.534 152.802 469.497H351.411C351.297 466.534 349.36 464.14 346.967 464.14Z" fill="#6695FF"/>
<path d="M370.896 382.32H245.896C244.301 382.434 242.82 383.46 242.364 385.055L221.854 462.089C221.512 463.115 221.968 464.368 223.107 464.71C223.335 464.824 223.677 464.824 223.905 464.824H348.904C350.499 464.824 351.981 463.685 352.436 462.089L372.947 385.055C373.289 384.03 372.833 382.776 371.693 382.434C371.465 382.32 371.238 382.32 370.896 382.32Z" fill="#6695FF"/>
<path opacity="0.2" d="M242.25 385.511L221.968 461.861C221.512 463.115 222.196 464.482 223.335 464.938C223.677 465.052 223.905 465.052 224.247 465.052L246.239 382.32C244.301 382.434 242.706 383.688 242.25 385.511Z" fill="black"/>
<path opacity="0.2" d="M219.347 464.14H157.588C154.967 464.14 152.802 466.534 152.688 469.497H224.133C224.133 466.534 221.968 464.254 219.347 464.14Z" fill="black"/>
<path d="M435.276 469.496H0V484.312H435.276V469.496Z" fill="#D9E5FF"/>
<path d="M529.851 469.496H355.513V484.312H529.851V469.496Z" fill="#ABC5FF"/>
<path d="M25.2963 757.804H15.9526L28.3728 484.311H50.1366L25.2963 757.804Z" fill="#ABC5FF"/>
<path d="M71.7861 757.804H81.5855L94.5754 484.311H71.7861V757.804Z" fill="#ABC5FF"/>
<path d="M412.486 757.804H403.143L390.836 480.892H412.486V757.804Z" fill="#ABC5FF"/>
<path d="M501.137 757.804H510.48L498.06 480.892H476.296L501.137 757.804Z" fill="#ABC5FF"/>
</g>
<defs>
<clipPath id="clip0_933:11007">
<rect width="835" height="759" fill="white"/>
</clipPath>
</defs>
</svg>
