<svg width="44" height="35" viewBox="0 0 44 35" fill="none" xmlns="http://www.w3.org/2000/svg">
<path d="M1.41132 7.27885H2.5211H35.9595H36.9728C37.407 7.27885 37.793 6.98934 37.8895 6.55508C37.8895 6.45857 37.9378 6.41032 37.9378 6.31382V1.05439C37.9378 0.52362 37.5035 0.0893555 36.9728 0.0893555H1.50783C0.977063 0.0893555 0.542798 0.52362 0.542798 1.05439L0.446289 6.26557C0.446289 6.45857 0.494535 6.60333 0.591038 6.74808C0.63929 6.84459 0.687535 6.89284 0.735787 6.94109C0.928794 7.1341 1.17006 7.27885 1.41132 7.27885ZM2.47286 2.01942H36.0077V5.30053H2.37635L2.47286 2.01942Z" fill="#1158E5"/>
<path d="M42.6667 13.6964H37.8898V6.55518C37.7933 6.98944 37.4073 7.27895 36.973 7.27895H35.9597V13.6964H31.6654C31.1346 13.6964 30.7003 14.1307 30.7003 14.6614V25.3251H2.52137V7.27895H1.41159C1.17033 7.27895 0.880812 7.18245 0.736058 6.98944C0.687806 6.94119 0.63956 6.84469 0.591309 6.79643V26.3383C0.591309 26.8691 1.02557 27.3034 1.55634 27.3034H30.7003V29.4747C30.7003 28.9439 31.1346 28.5097 31.6654 28.5097H32.6304V15.6265H41.7017V28.5097H42.0877C42.6185 28.5097 43.0527 28.9439 43.0527 29.4747C43.0527 30.0055 42.6185 30.4397 42.0877 30.4397H41.7017V32.9971H32.6304V30.4397H31.6654C31.1346 30.4397 30.7003 30.0055 30.7003 29.4747V33.9621C30.7003 34.4929 31.1346 34.9271 31.6654 34.9271H42.6667C43.1975 34.9271 43.6318 34.4929 43.6318 33.9621V14.6614C43.6318 14.1307 43.1975 13.6964 42.6667 13.6964Z" fill="#1158E5"/>
<path d="M31.6652 30.3915H32.6303H41.7016H42.0876C42.6183 30.3915 43.0526 29.9572 43.0526 29.4265C43.0526 28.8957 42.6183 28.4614 42.0876 28.4614H41.7016H32.6303H31.6652C31.1345 28.4614 30.7002 28.8957 30.7002 29.4265C30.7002 29.9572 31.1345 30.3915 31.6652 30.3915Z" fill="#1158E5"/>
<path d="M7.00849 14.4684H22.3043C22.835 14.4684 23.2693 14.0341 23.2693 13.5034C23.2693 12.9726 22.835 12.5383 22.3043 12.5383H7.00849C6.47772 12.5383 6.04346 12.9726 6.04346 13.5034C6.04346 14.0341 6.47772 14.4684 7.00849 14.4684Z" fill="#1158E5"/>
<path d="M15.3078 16.8809H7.00849C6.47772 16.8809 6.04346 17.3151 6.04346 17.8459C6.04346 18.3767 6.47772 18.8109 7.00849 18.8109H15.3078C15.8385 18.8109 16.2728 18.3767 16.2728 17.8459C16.2728 17.3151 15.8868 16.8809 15.3078 16.8809Z" fill="#1158E5"/>
</svg>
