<svg width="31" height="37" viewBox="0 0 31 37" fill="none" xmlns="http://www.w3.org/2000/svg">
<path d="M28.7253 35.2519V34.4205H1.66283V1.66282H0.831413C0.415706 1.66282 0.0415706 1.33026 0 0.914551C0 0.956121 0 0.956121 0 0.997692V35.2519C0 35.7092 0.374136 36.0833 0.831413 36.0833H29.5151C29.0994 36.0833 28.7253 35.7092 28.7253 35.2519Z" fill="#1158E5"/>
<path d="M28.7256 8.68832V34.4205V35.252C28.7256 35.7092 29.0997 36.0834 29.557 36.0834C30.0143 36.0834 30.3884 35.7092 30.3884 35.252V8.48047C30.2221 8.64675 30.0143 8.72989 29.8064 8.72989H28.7256V8.68832Z" fill="#1158E5"/>
<path d="M22.8226 0.831413V2.61895L27.7695 7.02544H29.8481C30.0559 7.02544 30.2222 7.10858 30.3469 7.19172C30.3053 7.06701 30.2222 6.98387 30.1391 6.90073L22.6563 0.166283C22.4485 0.0831413 22.2822 0 22.0744 0H21.9912C22.4485 0 22.8226 0.374136 22.8226 0.831413Z" fill="#1158E5"/>
<path d="M0.831413 1.66283H1.66283H21.1179V0.831413C21.1179 0.374136 21.492 0 21.9493 0H0.831413C0.374136 0 0 0.374136 0 0.831413C0 0.872983 0 0.872983 0 0.914554C0.0831413 1.33026 0.415706 1.66283 0.831413 1.66283Z" fill="#1158E5"/>
<path d="M30.3048 7.23329C30.1801 7.10858 29.9722 7.06701 29.8059 7.06701H27.7274H22.7805V2.61895V0.831413C22.7805 0.374136 22.4064 0 21.9491 0C21.4918 0 21.1177 0.374136 21.1177 0.831413V1.66283V7.85685C21.1177 8.31413 21.4918 8.68826 21.9491 8.68826H28.7251H29.8059C30.0554 8.68826 30.2216 8.60512 30.3879 8.43884C30.5542 8.27256 30.6373 8.0647 30.6373 7.85685C30.6373 7.60743 30.5126 7.39957 30.3048 7.23329Z" fill="#1158E5"/>
<path d="M9.14538 30.1803C9.60265 30.1803 9.97679 29.8062 9.97679 29.3489C9.97679 26.3974 12.3879 23.9863 15.3394 23.9863C18.2909 23.9863 20.702 26.3974 20.702 29.3489C20.702 29.8062 21.0762 30.1803 21.5334 30.1803C21.9907 30.1803 22.3648 29.8062 22.3648 29.3489C22.3648 25.4829 19.2055 22.3235 15.3394 22.3235C11.4733 22.3235 8.31396 25.4829 8.31396 29.3489C8.31396 29.8062 8.6881 30.1803 9.14538 30.1803Z" fill="#1158E5"/>
<path d="M15.3395 21.0347C17.8753 21.0347 19.9123 18.9977 19.9123 16.4619C19.9123 13.9261 17.8753 11.8892 15.3395 11.8892C12.8037 11.8892 10.7667 13.9261 10.7667 16.4619C10.7252 18.9977 12.8037 21.0347 15.3395 21.0347ZM15.3395 13.552C16.9608 13.552 18.2494 14.8822 18.2494 16.4619C18.2494 18.0416 16.9192 19.3719 15.3395 19.3719C13.7182 19.3719 12.4296 18.0416 12.4296 16.4619C12.4296 14.8822 13.7182 13.552 15.3395 13.552Z" fill="#1158E5"/>
</svg>
