<svg width="45" height="34" viewBox="0 0 45 34" fill="none" xmlns="http://www.w3.org/2000/svg">
<path d="M37.7933 11.3355C37.938 11.3355 38.131 11.2873 38.2758 11.1908L42.7149 8.72993C43.1975 8.48867 43.3422 7.8614 43.101 7.42713C42.8597 6.94462 42.2324 6.79986 41.7982 7.04112L37.359 9.50195C36.8765 9.74321 36.7317 10.3705 36.973 10.8047C37.1178 11.1908 37.4555 11.3355 37.7933 11.3355Z" fill="#1158E5"/>
<path d="M42.6666 25.1355L38.2275 22.6747C37.745 22.4334 37.1659 22.5782 36.9247 23.0607C36.6834 23.5432 36.8282 24.1222 37.3107 24.3635L41.7498 26.8243C41.8946 26.9208 42.0393 26.9691 42.2323 26.9691C42.5701 26.9691 42.9079 26.7761 43.0526 26.4865C43.2939 26.004 43.1491 25.3768 42.6666 25.1355Z" fill="#1158E5"/>
<path d="M43.7281 15.9678H38.3239C37.7932 15.9678 37.3589 16.402 37.3589 16.9328C37.3589 17.4636 37.7932 17.8978 38.3239 17.8978H43.7281C44.2589 17.8978 44.6931 17.4636 44.6931 16.9328C44.6931 16.402 44.2589 15.9678 43.7281 15.9678Z" fill="#1158E5"/>
<path d="M34.4639 0.43067C34.2227 0.237664 33.8849 0.189412 33.5954 0.334167L9.51785 9.55023H1.50808C1.36333 9.55023 1.21857 9.59848 1.12207 9.64673C1.21857 9.59848 1.31508 9.59848 1.45983 9.59848C1.9906 9.59848 2.42486 10.0327 2.42486 10.5635V11.4803H9.66261C9.75911 11.4803 9.90386 11.4803 10.0004 11.432L32.9199 2.65025V31.2152L34.2227 31.6977C34.7052 31.8907 34.9947 32.4215 34.8017 32.9523C34.657 33.3383 34.2709 33.5795 33.8849 33.5795C33.8367 33.5795 33.8367 33.5795 33.7884 33.5795C33.8367 33.5795 33.8849 33.5795 33.9332 33.5795C34.4639 33.5795 34.8982 33.1453 34.8982 32.6145V1.25095C34.85 0.913186 34.7052 0.623677 34.4639 0.43067Z" fill="#1158E5"/>
<path d="M34.8015 32.9522C34.9945 32.4697 34.7532 31.8906 34.2224 31.6976L32.9196 31.2151L10.0001 22.5298C9.90361 22.4816 9.75886 22.4816 9.66235 22.4816H2.37635V11.4802V10.5634C2.37635 10.0327 1.94209 9.59839 1.41132 9.59839C1.31482 9.59839 1.17006 9.64664 1.07356 9.64664C0.687549 9.79139 0.446289 10.1292 0.446289 10.5634V23.3984C0.446289 23.9291 0.880554 24.3634 1.41132 24.3634H9.46935L33.4987 33.5312C33.5469 33.5312 33.5952 33.5795 33.6434 33.5795H33.6917C33.7399 33.5795 33.7399 33.5795 33.7882 33.5795C34.2707 33.5795 34.6567 33.3382 34.8015 32.9522Z" fill="#1158E5"/>
<path d="M10.1447 21.1307C10.6755 21.1307 11.1098 20.6964 11.1098 20.1657V13.4587C11.1098 12.9279 10.6755 12.4937 10.1447 12.4937C9.61395 12.4937 9.17969 12.9279 9.17969 13.4587V20.1657C9.17969 20.6964 9.61395 21.1307 10.1447 21.1307Z" fill="#1158E5"/>
</svg>
