<svg width="46" height="45" viewBox="0 0 46 45" fill="none" xmlns="http://www.w3.org/2000/svg">
<path d="M42.3669 8.84253H40.3438V31.0972H42.3669V8.84253Z" fill="#1158E5"/>
<path d="M16.268 34.3848H8.68115V36.4079H16.268V34.3848Z" fill="#1158E5"/>
<path d="M29.5702 34.3848V17.3398C29.5702 17.1375 29.5196 16.9352 29.4184 16.7834L24.31 5.45381H37.157V3.43066H8.68115V5.45381H21.5787L16.3691 16.7834C16.268 16.9858 16.268 17.1881 16.268 17.3904V17.1881C16.268 16.6317 16.7232 16.1765 17.2795 16.1765C17.8359 16.1765 18.2911 16.6317 18.2911 17.1881V17.3904L20.466 12.6866H24.8158C25.0181 12.6866 25.1698 12.636 25.3216 12.5348L27.0412 16.2777H21.6293C21.0729 16.2777 20.6177 16.7329 20.6177 17.2892C20.6177 17.8456 21.0729 18.3008 21.6293 18.3008H27.547V34.7895C27.3953 34.9412 27.3447 35.1941 27.3447 35.3964C27.3447 35.5987 27.4459 35.8516 27.547 36.0034V42.6292H28.5586C29.0138 42.6292 29.4184 42.9327 29.5196 43.3879C29.5196 43.2867 29.5702 43.1855 29.5702 43.135V36.408H37.1064V34.3848H29.5702ZM21.3764 10.6634L22.8938 7.32523L24.4111 10.6634H21.3764Z" fill="#1158E5"/>
<path d="M44.5422 0.446533H38.1693C37.6129 0.446533 37.1577 0.901742 37.1577 1.45811V3.3801V5.40325V7.78045C37.1577 8.33682 37.6129 8.79202 38.1693 8.79202H40.3442H42.3673H44.5422C45.0986 8.79202 45.5538 8.33682 45.5538 7.78045V1.45811C45.5538 0.901742 45.0986 0.446533 44.5422 0.446533ZM43.5306 6.81945H39.1809V2.46968H43.5306V6.81945Z" fill="#1158E5"/>
<path d="M38.1693 31.0972C37.6129 31.0972 37.1577 31.5524 37.1577 32.1087V34.3848V36.4079V38.4817C37.1577 39.038 37.6129 39.4932 38.1693 39.4932H44.5422C45.0986 39.4932 45.5538 39.038 45.5538 38.4817V32.1087C45.5538 31.5524 45.0986 31.0972 44.5422 31.0972H42.3673H40.3442H38.1693ZM43.5306 37.4701H39.1809V33.1203H43.5306V37.4701Z" fill="#1158E5"/>
<path d="M5.49532 8.84253H3.47217V31.0972H5.49532V8.84253Z" fill="#1158E5"/>
<path d="M7.67014 8.8426C8.22651 8.8426 8.68172 8.3874 8.68172 7.83103V5.45383V3.43068V1.45811C8.68172 0.901742 8.22651 0.446533 7.67014 0.446533H1.29722C0.740853 0.446533 0.285645 0.901742 0.285645 1.45811V7.83103C0.285645 8.3874 0.740853 8.8426 1.29722 8.8426H3.47211H5.49525H7.67014ZM2.30879 2.46968H6.65857V4.23994V4.59399V6.81946H2.30879V2.46968Z" fill="#1158E5"/>
<path d="M8.68172 32.1087C8.68172 31.5524 8.22651 31.0972 7.67014 31.0972H5.49525H3.47211H1.29722C0.740853 31.0972 0.285645 31.5524 0.285645 32.1087V38.4817C0.285645 39.038 0.740853 39.4932 1.29722 39.4932H7.67014C8.22651 39.4932 8.68172 39.038 8.68172 38.4817V36.4079V34.3848V32.1087ZM2.30879 37.4701V33.1203H6.65857V35.2446V35.5987V37.4701H2.30879Z" fill="#1158E5"/>
<path d="M28.5587 42.6292H27.5471H18.2912V17.3904V17.1881C18.2912 16.6317 17.836 16.1765 17.2796 16.1765C16.7233 16.1765 16.2681 16.6317 16.2681 17.1881V17.3904V34.4354V36.4586V43.6913C16.2681 44.2477 16.7233 44.7029 17.2796 44.7029H28.5587C29.1151 44.7029 29.5703 44.2477 29.5703 43.6913C29.5703 43.5902 29.5703 43.489 29.5197 43.4385C29.4185 42.9327 29.0645 42.6292 28.5587 42.6292Z" fill="#1158E5"/>
</svg>
