<svg width="44" height="28" viewBox="0 0 44 28" fill="none" xmlns="http://www.w3.org/2000/svg">
<path d="M32.1153 26.9811V26.0161H2.537V2.6623H1.57197C1.0412 2.6623 0.606934 2.22803 0.606934 1.69727V26.9329C0.606934 27.1741 0.703455 27.4154 0.896461 27.6084C1.08947 27.8014 1.33071 27.8979 1.57197 27.8979H32.9355C32.453 27.8496 32.1153 27.4636 32.1153 26.9811Z" fill="#1158E5"/>
<path d="M42.8271 5.17133C42.5376 4.97832 42.1999 4.97832 41.9103 5.07482L34.0453 8.45244V1.69721C34.0453 1.16644 33.6111 0.732178 33.0803 0.732178H1.57197C1.0412 0.732178 0.606934 1.16644 0.606934 1.69721C0.606934 2.22798 1.0412 2.66224 1.57197 2.66224H2.537H32.1153V25.9678V26.9328C32.1153 27.4153 32.453 27.8013 32.8873 27.8978C32.9355 27.8978 32.9838 27.8978 33.0803 27.8978C33.6111 27.8978 34.0453 27.4636 34.0453 26.9328V20.1776L41.9103 23.5552C42.0551 23.6034 42.1516 23.6517 42.2963 23.6517C42.4894 23.6517 42.6824 23.6034 42.8271 23.5069C43.1166 23.3139 43.2614 23.0244 43.2614 22.6867V5.9916C43.2614 5.65384 43.0684 5.36433 42.8271 5.17133ZM41.3313 21.2391L34.1901 18.1993V10.5273L41.3313 7.4874V21.2391Z" fill="#1158E5"/>
<path d="M22.1274 15.1595C22.1757 15.1112 22.224 15.1112 22.224 15.063C22.417 14.87 22.5617 14.6287 22.5617 14.3875C22.5617 14.6287 22.417 14.87 22.224 15.063L22.1274 15.1595Z" fill="#1158E5"/>
<path d="M22.2721 13.6154L16.9644 7.48741C16.6267 7.1014 15.9994 7.05315 15.6134 7.39091C15.2274 7.72867 15.1791 8.35594 15.5169 8.74196L20.2938 14.1944L21.0176 13.5671C21.3553 13.2776 21.8861 13.2776 22.2721 13.6154Z" fill="#1158E5"/>
<path d="M14.6965 20.3705C14.8895 20.6118 15.179 20.7083 15.4203 20.7083C15.6615 20.7083 15.8545 20.6118 16.0475 20.467L22.1273 15.1593L22.2238 15.0628C22.4168 14.8698 22.5133 14.6286 22.5615 14.3873C22.5615 14.1461 22.5133 13.9048 22.3202 13.6635C22.272 13.6153 22.272 13.6153 22.2238 13.567C21.886 13.2293 21.307 13.2293 20.9692 13.567L20.2454 14.1943L14.793 19.0195C14.3587 19.3572 14.3587 19.9845 14.6965 20.3705Z" fill="#1158E5"/>
</svg>
