<svg width="257" height="38" viewBox="0 0 257 38" fill="none" xmlns="http://www.w3.org/2000/svg">
<g clip-path="url(#clip0_2286:5802)">
<path d="M88.6633 7.78882H83.2188V37.9999H83.234H88.6633V7.78882Z" fill="black"/>
<path d="M9.12487 8.9039C3.64995 10.6692 0 15.9186 0 21.7719V38.0001H5.0643V21.7254C5.0643 18.7368 7.25427 15.2527 9.96131 14.1068C16.0598 11.5363 21.9301 16.0579 21.9301 21.9577V38.0156H26.9944V21.9422C26.9792 12.93 18.417 5.91531 9.12487 8.9039Z" fill="black"/>
<path d="M135.413 8.9039C129.938 10.6692 126.288 15.9186 126.288 21.7719V38.0001H131.352V21.7254C131.352 18.7368 133.542 15.2527 136.249 14.1068C142.348 11.5363 148.218 16.0579 148.218 21.9577V38.0156H153.282V21.9422C153.267 12.93 144.69 5.91531 135.413 8.9039Z" fill="black"/>
<path d="M171.836 8.20701C168.764 8.20701 165.784 9.27547 163.396 11.2421V0H158.332V38H163.396V21.7253C163.396 18.7368 165.586 15.2526 168.293 14.1068C174.391 11.5363 180.262 16.0579 180.262 21.9576V38.0155H185.326V21.9421C185.341 14.37 179.288 8.20701 171.836 8.20701Z" fill="black"/>
<path d="M88.6633 0.356201H83.2188V5.00168H88.6633V0.356201Z" fill="black"/>
<path d="M195.85 7.78882H190.421V37.9999H195.85V7.78882Z" fill="black"/>
<path d="M195.85 0.356201H190.421V5.00168H195.85V0.356201Z" fill="black"/>
<path d="M78.1545 7.69604H72.71V12.3415H78.1545V7.69604Z" fill="black"/>
<path d="M45.8524 13.5184C52.3006 13.5184 57.2737 20.0375 54.7643 26.9438C53.8519 29.4214 51.9052 31.4035 49.4719 32.3326C42.6891 34.903 36.2865 29.824 36.2865 23.2584C36.2713 17.8851 40.5752 13.5184 45.8524 13.5184ZM45.8524 8.53223C36.4082 8.53223 29.0779 17.7458 32.0434 27.8264C33.3818 32.379 36.91 35.9715 41.3812 37.3342C51.2817 40.3537 60.3305 32.89 60.3305 23.2739C60.3153 15.1288 53.8367 8.53223 45.8524 8.53223Z" fill="black"/>
<path d="M107.476 13.5184C113.924 13.5184 118.897 20.0375 116.388 26.9438C115.475 29.4214 113.529 31.4035 111.095 32.3326C104.313 34.903 97.91 29.824 97.91 23.2584C97.8948 17.8851 102.199 13.5184 107.476 13.5184ZM107.476 8.53223C98.0317 8.53223 90.7014 17.7458 93.667 27.8264C95.0053 32.379 98.5336 35.9715 103.005 37.3342C112.905 40.3537 121.954 32.89 121.954 23.2739C121.939 15.1288 115.46 8.53223 107.476 8.53223Z" fill="black"/>
<path d="M222.799 7.78882L213.963 31.5737L205.112 7.78882H199.834L210.997 37.9999H216.913L227.893 8.29982L228.091 7.78882H222.799Z" fill="black"/>
<path d="M69.7137 24.048V0.448975H64.6494V24.048C64.6494 31.6201 70.7023 37.7521 78.139 37.7676V32.6266C73.5006 32.6266 69.7137 28.7864 69.7137 24.048Z" fill="black"/>
<path d="M242.296 32.7505C238.083 32.7505 234.555 29.669 233.536 25.519H251.055H256.302C256.424 24.7293 256.5 23.9241 256.5 23.0879C256.5 14.8654 250.143 8.19141 242.296 8.19141C234.448 8.19141 228.091 14.8654 228.091 23.0879C228.091 31.3104 234.448 37.9844 242.296 37.9844C248.348 37.9844 253.489 34.0203 255.542 28.4302H249.808C248.181 31.0472 245.429 32.7505 242.296 32.7505ZM242.296 13.4408C246.615 13.4408 250.234 16.6926 251.132 21.0129H233.445C234.342 16.6926 237.961 13.4408 242.296 13.4408Z" fill="black"/>
</g>
<defs>
<clipPath id="clip0_2286:5802">
<rect width="256.5" height="38" fill="white"/>
</clipPath>
</defs>
</svg>
